<svg width="22" height="22" viewBox="0 0 22 22" fill="none" xmlns="http://www.w3.org/2000/svg">
<path d="M13.2916 3.66675H8.70831L6.41665 6.41675H3.66665C3.18042 6.41675 2.7141 6.6099 2.37028 6.95372C2.02647 7.29754 1.83331 7.76385 1.83331 8.25008V16.5001C1.83331 16.9863 2.02647 17.4526 2.37028 17.7964C2.7141 18.1403 3.18042 18.3334 3.66665 18.3334H18.3333C18.8195 18.3334 19.2859 18.1403 19.6297 17.7964C19.9735 17.4526 20.1666 16.9863 20.1666 16.5001V8.25008C20.1666 7.76385 19.9735 7.29754 19.6297 6.95372C19.2859 6.6099 18.8195 6.41675 18.3333 6.41675H15.5833L13.2916 3.66675Z" stroke="#9A9A9A" stroke-width="1.83333" stroke-linecap="round" stroke-linejoin="round"/>
<path d="M11 14.6667C12.5188 14.6667 13.75 13.4355 13.75 11.9167C13.75 10.398 12.5188 9.16675 11 9.16675C9.48122 9.16675 8.25 10.398 8.25 11.9167C8.25 13.4355 9.48122 14.6667 11 14.6667Z" stroke="#9A9A9A" stroke-width="1.83333" stroke-linecap="round" stroke-linejoin="round"/>
</svg>
