<svg width="34" height="34" viewBox="0 0 34 34" fill="none" xmlns="http://www.w3.org/2000/svg">
<path d="M0 11C0 4.92487 4.92487 0 11 0H23C29.0751 0 34 4.92487 34 11V23C34 29.0751 29.0751 34 23 34H11C4.92487 34 0 29.0751 0 23V11Z" fill="#EDF5EF"/>
<path d="M15.8453 23C15.9624 23.2027 16.1307 23.371 16.3334 23.488C16.5361 23.605 16.766 23.6666 17 23.6666C17.234 23.6666 17.464 23.605 17.6666 23.488C17.8693 23.371 18.0376 23.2027 18.1547 23" stroke="#6B9E7A" stroke-width="1.33333" stroke-linecap="round" stroke-linejoin="round"/>
<path d="M11.1747 19.2173C11.0876 19.3128 11.0301 19.4315 11.0092 19.559C10.9884 19.6865 11.005 19.8174 11.0571 19.9356C11.1093 20.0538 11.1946 20.1544 11.3028 20.225C11.4111 20.2956 11.5375 20.3332 11.6667 20.3333H22.3333C22.4625 20.3334 22.589 20.2959 22.6972 20.2254C22.8055 20.1549 22.891 20.0545 22.9433 19.9364C22.9955 19.8182 23.0123 19.6874 22.9916 19.5599C22.9709 19.4323 22.9136 19.3136 22.8267 19.218C21.94 18.304 21 17.3327 21 14.3333C21 13.2725 20.5786 12.2551 19.8284 11.5049C19.0783 10.7548 18.0609 10.3333 17 10.3333C15.9391 10.3333 14.9217 10.7548 14.1716 11.5049C13.4214 12.2551 13 13.2725 13 14.3333C13 17.3327 12.0593 18.304 11.1747 19.2173Z" stroke="#6B9E7A" stroke-width="1.33333" stroke-linecap="round" stroke-linejoin="round"/>
</svg>
