<svg width="34" height="34" viewBox="0 0 34 34" fill="none" xmlns="http://www.w3.org/2000/svg">
<path d="M0 11C0 4.92487 4.92487 0 11 0H23C29.0751 0 34 4.92487 34 11V23C34 29.0751 29.0751 34 23 34H11C4.92487 34 0 29.0751 0 23V11Z" fill="#EDF5EF"/>
<path d="M21.6667 23V21.6667C21.6667 20.9594 21.3858 20.2811 20.8857 19.781C20.3856 19.281 19.7073 19 19 19H15C14.2928 19 13.6145 19.281 13.1144 19.781C12.6143 20.2811 12.3334 20.9594 12.3334 21.6667V23" stroke="#6B9E7A" stroke-width="1.33333" stroke-linecap="round" stroke-linejoin="round"/>
<path d="M17 16.3333C18.4728 16.3333 19.6667 15.1394 19.6667 13.6667C19.6667 12.1939 18.4728 11 17 11C15.5273 11 14.3334 12.1939 14.3334 13.6667C14.3334 15.1394 15.5273 16.3333 17 16.3333Z" stroke="#6B9E7A" stroke-width="1.33333" stroke-linecap="round" stroke-linejoin="round"/>
</svg>
