<svg width="34" height="34" viewBox="0 0 34 34" fill="none" xmlns="http://www.w3.org/2000/svg">
<path d="M0 11C0 4.92487 4.92487 0 11 0H23C29.0751 0 34 4.92487 34 11V23C34 29.0751 29.0751 34 23 34H11C4.92487 34 0 29.0751 0 23V11Z" fill="#EDF5EF"/>
<g clip-path="url(#clip0_113_4120)">
<path d="M23.6667 17H22.0134C21.722 16.9994 21.4385 17.0942 21.2061 17.27C20.9738 17.4458 20.8054 17.6928 20.7267 17.9733L19.16 23.5467C19.1499 23.5813 19.1289 23.6117 19.1 23.6333C19.0712 23.655 19.0361 23.6667 19 23.6667C18.964 23.6667 18.9289 23.655 18.9 23.6333C18.8712 23.6117 18.8501 23.5813 18.84 23.5467L15.16 10.4533C15.1499 10.4187 15.1289 10.3883 15.1 10.3667C15.0712 10.345 15.0361 10.3333 15 10.3333C14.964 10.3333 14.9289 10.345 14.9 10.3667C14.8712 10.3883 14.8501 10.4187 14.84 10.4533L13.2734 16.0267C13.195 16.3061 13.0276 16.5524 12.7966 16.728C12.5656 16.9037 12.2836 16.9992 11.9934 17H10.3334" stroke="#6B9E7A" stroke-width="1.33333" stroke-linecap="round" stroke-linejoin="round"/>
</g>
<defs>
<clipPath id="clip0_113_4120">
<rect width="16" height="16" fill="white" transform="translate(9 9)"/>
</clipPath>
</defs>
</svg>
