<svg width="46" height="46" viewBox="0 0 46 46" fill="none" xmlns="http://www.w3.org/2000/svg">
<path d="M0 14C0 6.26801 6.26801 0 14 0H32C39.732 0 46 6.26801 46 14V32C46 39.732 39.732 46 32 46H14C6.26801 46 0 39.732 0 32V14Z" fill="#EDF5EF"/>
<path d="M23.5509 31.9823C25.2559 30.5102 30.3333 25.7435 30.3333 21.1666C30.3333 19.2217 29.5607 17.3564 28.1854 15.9811C26.8101 14.6059 24.9449 13.8333 23 13.8333C21.055 13.8333 19.1898 14.6059 17.8145 15.9811C16.4392 17.3564 15.6666 19.2217 15.6666 21.1666C15.6666 25.7435 20.744 30.5102 22.449 31.9823C22.6079 32.1018 22.8012 32.1664 23 32.1664C23.1987 32.1664 23.392 32.1018 23.5509 31.9823Z" stroke="#6B9E7A" stroke-width="1.83333" stroke-linecap="round" stroke-linejoin="round"/>
<path d="M23 23.9167C24.5188 23.9167 25.75 22.6855 25.75 21.1667C25.75 19.648 24.5188 18.4167 23 18.4167C21.4812 18.4167 20.25 19.648 20.25 21.1667C20.25 22.6855 21.4812 23.9167 23 23.9167Z" stroke="#6B9E7A" stroke-width="1.83333" stroke-linecap="round" stroke-linejoin="round"/>
</svg>
