<svg width="58" height="58" viewBox="0 0 58 58" fill="none" xmlns="http://www.w3.org/2000/svg">
<path d="M29 1C44.464 1 57 13.536 57 29C57 44.464 44.464 57 29 57C13.536 57 1 44.464 1 29C1 13.536 13.536 1 29 1Z" fill="#8AAF95"/>
<path d="M29 1C44.464 1 57 13.536 57 29C57 44.464 44.464 57 29 57C13.536 57 1 44.464 1 29C1 13.536 13.536 1 29 1Z" stroke="#B9CFBF" stroke-width="2"/>
<path d="M42.2672 28.0845C42.1264 27.8379 41.9377 27.6219 41.7124 27.4491C41.487 27.2763 41.2294 27.1502 40.9547 27.0783C40.2979 26.908 39.6228 26.8187 38.9444 26.8125C39.1908 25.2764 39.0785 23.7042 38.6162 22.2187C38.4497 21.697 38.0949 21.256 37.6209 20.9816C37.147 20.7073 36.5878 20.6192 36.0525 20.7345C35.0435 20.9571 34.0768 21.3401 33.1891 21.8687C32.4752 20.5578 31.4955 19.4104 30.3125 18.5C29.9333 18.2172 29.473 18.0644 29 18.0644C28.527 18.0644 28.0666 18.2172 27.6875 18.5C26.5045 19.4104 25.5248 20.5578 24.8109 21.8687C23.9243 21.34 22.9587 20.9567 21.9508 20.7334C21.4153 20.6181 20.856 20.7064 20.3821 20.981C19.9081 21.2556 19.5534 21.6968 19.387 22.2187C18.9247 23.7042 18.8124 25.2764 19.0589 26.8125C18.3794 26.8184 17.7031 26.9077 17.0453 27.0783C16.7706 27.1502 16.513 27.2763 16.2876 27.4491C16.0622 27.6219 15.8736 27.8379 15.7328 28.0845C15.5872 28.3352 15.4929 28.6124 15.4553 28.8998C15.4178 29.1873 15.4377 29.4794 15.5141 29.7591C15.9023 31.1984 17.0891 33.9328 20.67 36.0722C24.205 38.1875 27.3331 38.1875 29.0087 38.1875C30.6844 38.1875 33.795 38.1875 37.3289 36.0722C40.9098 33.9328 42.0965 31.1984 42.4848 29.7591C42.5613 29.4794 42.5815 29.1874 42.5441 28.8999C42.5067 28.6125 42.4126 28.3353 42.2672 28.0845ZM22.0175 33.818C19.5795 32.3611 18.5886 30.6319 18.1894 29.5141C18.7152 29.4301 19.2496 29.4132 19.7797 29.4637C20.0436 30.1307 20.3562 30.7774 20.7148 31.3986C21.3159 32.4374 22.0348 33.4034 22.8575 34.2773C22.5797 34.1406 22.2997 33.9875 22.0175 33.818ZM23.6406 31.1076C23.4109 30.7795 23.19 30.4514 22.9844 30.0916C21.2748 27.1078 21.4356 24.7278 21.7812 23.3956C22.4984 23.6061 23.1803 23.922 23.8047 24.333C23.471 25.5382 23.3054 26.7837 23.3125 28.0342C23.3077 29.0677 23.4178 30.0985 23.6406 31.1076ZM29 35.2639C27.9369 34.3812 25.9375 32.1708 25.9375 28.0309C25.9375 23.9381 27.9062 21.72 29 20.8034C30.0937 21.72 32.0625 23.9381 32.0625 28.0309C32.0625 32.1719 30.0631 34.3845 29 35.2672V35.2639ZM34.3594 31.1076C34.5822 30.0985 34.6923 29.0677 34.6875 28.0342C34.6946 26.7837 34.529 25.5382 34.1953 24.333C34.8196 23.9218 35.5015 23.6055 36.2187 23.3945C36.5611 24.7278 36.7219 27.1133 35.0091 30.0916C34.8078 30.447 34.5869 30.785 34.3594 31.1076ZM35.9847 33.818C35.7047 33.9853 35.428 34.1362 35.1556 34.273C35.9749 33.3999 36.6909 32.4355 37.2895 31.3986C37.6482 30.7774 37.9607 30.1307 38.2247 29.4637C38.7548 29.4132 39.2891 29.4301 39.815 29.5141C39.4114 30.6319 38.4205 32.3611 35.9825 33.818H35.9847Z" fill="white"/>
</svg>
