<svg width="28" height="28" viewBox="0 0 28 28" fill="none" xmlns="http://www.w3.org/2000/svg">
<rect width="28" height="28" rx="14" fill="#C8E0CE"/>
<path d="M17.2328 7.5C15.9338 7.5 14.781 8.01544 14 8.90137C13.219 8.01544 12.0662 7.5 10.7672 7.5C9.63592 7.50138 8.55132 7.95379 7.75136 8.758C6.95139 9.56222 6.50137 10.6526 6.5 11.7899C6.5 16.4919 13.3412 20.2488 13.6321 20.4067C13.7452 20.468 13.8716 20.5 14 20.5C14.1284 20.5 14.2548 20.468 14.3679 20.4067C14.6588 20.2488 21.5 16.4919 21.5 11.7899C21.4986 10.6526 21.0486 9.56222 20.2486 8.758C19.4487 7.95379 18.3641 7.50138 17.2328 7.5ZM16.8778 16.7532C15.9773 17.5214 15.0147 18.2127 14 18.8201C12.9853 18.2127 12.0227 17.5214 11.1222 16.7532C9.72112 15.5449 8.05172 13.7022 8.05172 11.7899C8.05172 11.0659 8.33782 10.3715 8.84708 9.85954C9.35634 9.34758 10.047 9.05996 10.7672 9.05996C11.9181 9.05996 12.8815 9.67095 13.2817 10.655C13.3399 10.7985 13.4394 10.9212 13.5673 11.0077C13.6952 11.0941 13.8459 11.1402 14 11.1402C14.1541 11.1402 14.3048 11.0941 14.4327 11.0077C14.5606 10.9212 14.6601 10.7985 14.7183 10.655C15.1185 9.67095 16.0819 9.05996 17.2328 9.05996C17.953 9.05996 18.6437 9.34758 19.1529 9.85954C19.6622 10.3715 19.9483 11.0659 19.9483 11.7899C19.9483 13.7022 18.2789 15.5449 16.8778 16.7532Z" fill="#4A7A58"/>
</svg>
