<svg width="28" height="28" viewBox="0 0 28 28" fill="none" xmlns="http://www.w3.org/2000/svg">
<rect width="28" height="28" rx="14" fill="#E8E0D8"/>
<path d="M21.2511 15.2294C21.1421 15.1202 21.0055 15.0428 20.8558 15.0054C20.7061 14.968 20.5491 14.972 20.4016 15.0171C19.371 15.3281 18.2753 15.3539 17.2312 15.0915C16.1871 14.8292 15.2337 14.2887 14.4726 13.5274C13.7115 12.7662 13.1712 11.8129 12.9092 10.7689C12.6472 9.72495 12.6734 8.62949 12.9849 7.59922C13.0304 7.45166 13.0347 7.2945 12.9975 7.14465C12.9603 6.9948 12.8829 6.85793 12.7737 6.74875C12.6645 6.63957 12.5276 6.56223 12.3777 6.52502C12.2278 6.48782 12.0707 6.49217 11.9231 6.53761C10.373 7.01391 9.0128 7.96693 8.03598 9.261C7.18176 10.3961 6.66084 11.7468 6.53166 13.1615C6.40249 14.5761 6.67018 15.9988 7.30469 17.2698C7.9392 18.5408 8.91543 19.6099 10.1238 20.3571C11.3322 21.1043 12.725 21.5001 14.1459 21.5C15.8047 21.5048 17.4194 20.9656 18.7423 19.9649C20.0359 18.9873 20.9882 17.6266 21.4634 16.0765C21.5081 15.9293 21.5119 15.7728 21.4745 15.6236C21.4371 15.4744 21.3599 15.3381 21.2511 15.2294ZM17.7201 18.6081C16.575 19.4699 15.1572 19.8893 13.7275 19.789C12.2978 19.6887 10.9524 19.0755 9.93898 18.0623C8.92554 17.0491 8.31223 15.704 8.21192 14.2746C8.1116 12.8453 8.53104 11.4277 9.39303 10.283C9.8466 9.68314 10.4087 9.17372 11.0502 8.78115C11.0375 8.96233 11.0311 9.14422 11.0311 9.32682C11.0334 11.3533 11.8396 13.2962 13.2729 14.7292C14.7061 16.1621 16.6495 16.9682 18.6764 16.9704C18.8591 16.9704 19.041 16.9641 19.2222 16.9513C18.8298 17.5928 18.3202 18.1548 17.7201 18.6081Z" fill="#A9A199"/>
</svg>
