<svg width="26" height="26" viewBox="0 0 26 26" fill="none" xmlns="http://www.w3.org/2000/svg">
<path d="M0 13C0 5.8203 5.8203 0 13 0C20.1797 0 26 5.8203 26 13C26 20.1797 20.1797 26 13 26C5.8203 26 0 20.1797 0 13Z" fill="#EDF5EF"/>
<g clip-path="url(#clip0_113_3774)">
<path d="M19.4807 9.12283C19.4719 8.97393 19.4088 8.83342 19.3033 8.72795C19.1978 8.62247 19.0573 8.55934 18.9084 8.55053C16.2033 8.39158 14.0233 9.22897 13.0767 10.792C12.4602 11.8076 12.4389 13.035 13.0025 14.2096C12.7282 14.5596 12.5172 14.9549 12.379 15.3776L11.7361 14.7347C12.1012 13.8831 12.0626 13.0025 11.6142 12.2621C10.9043 11.0886 9.28739 10.4609 7.28966 10.5762C7.14067 10.585 7.0001 10.6482 6.89461 10.7538C6.78912 10.8594 6.72605 11 6.71735 11.149C6.60157 13.1467 7.22923 14.7636 8.40177 15.4735C8.79944 15.7159 9.25636 15.8437 9.72208 15.8427C10.1191 15.8395 10.5114 15.7553 10.8748 15.5954L12.1875 16.9101V18.0781C12.1875 18.2397 12.2517 18.3947 12.366 18.509C12.4803 18.6233 12.6353 18.6875 12.7969 18.6875C12.9585 18.6875 13.1135 18.6233 13.2278 18.509C13.3421 18.3947 13.4063 18.2397 13.4063 18.0781V16.5806C13.405 16.0358 13.5734 15.5043 13.8882 15.0597C14.398 15.3012 14.9542 15.4292 15.5183 15.4349C16.1252 15.4363 16.7207 15.2701 17.2392 14.9546C18.8018 14.008 19.6402 11.828 19.4807 9.12283ZM9.03298 14.431C8.36317 14.0247 7.95743 13.0365 7.92442 11.7838C9.1772 11.8168 10.1659 12.2225 10.5717 12.8923C10.7303 13.1504 10.7954 13.4552 10.756 13.7556L10.1806 13.1782C10.0662 13.0637 9.91089 12.9994 9.74899 12.9994C9.5871 12.9994 9.43183 13.0637 9.31735 13.1782C9.20288 13.2927 9.13856 13.448 9.13856 13.6099C9.13856 13.7718 9.20288 13.927 9.31735 14.0415L9.89321 14.6174C9.59364 14.6544 9.29038 14.5887 9.03298 14.431ZM16.608 13.914C16.0667 14.2416 15.4401 14.3035 14.7895 14.105L16.6811 12.2139C16.7956 12.0994 16.8599 11.9441 16.8599 11.7822C16.8599 11.6204 16.7956 11.4651 16.6811 11.3506C16.5667 11.2361 16.4114 11.1718 16.2495 11.1718C16.0876 11.1718 15.9323 11.2361 15.8179 11.3506L13.9263 13.2417C13.7297 12.5937 13.7917 11.9646 14.1172 11.4258C14.7621 10.3594 16.283 9.74998 18.2467 9.74998H18.2813C18.2884 11.7305 17.679 13.263 16.608 13.914Z" fill="#6B9E7A"/>
</g>
<defs>
<clipPath id="clip0_113_3774">
<rect width="13" height="13" fill="white" transform="translate(6.5 6.5)"/>
</clipPath>
</defs>
</svg>
