<svg width="36" height="36" viewBox="0 0 36 36" fill="none" xmlns="http://www.w3.org/2000/svg">
<mask id="path-1-inside-1_113_3205" fill="white">
<path d="M0 18C0 8.05888 8.05888 0 18 0C27.9411 0 36 8.05888 36 18C36 27.9411 27.9411 36 18 36C8.05888 36 0 27.9411 0 18Z"/>
</mask>
<path d="M0 18C0 8.05888 8.05888 0 18 0C27.9411 0 36 8.05888 36 18C36 27.9411 27.9411 36 18 36C8.05888 36 0 27.9411 0 18Z" fill="white"/>
<path d="M0 18M36 18M36 18M0 18M18 0M36 18M18 36M0 18M18 36V35C8.61116 35 1 27.3888 1 18H0H-1C-1 28.4934 7.50659 37 18 37V36ZM36 18H35C35 27.3888 27.3888 35 18 35V36V37C28.4934 37 37 28.4934 37 18H36ZM18 0V1C27.3888 1 35 8.61116 35 18H36H37C37 7.50659 28.4934 -1 18 -1V0ZM18 0V-1C7.50659 -1 -1 7.50659 -1 18H0H1C1 8.61116 8.61116 1 18 1V0Z" fill="#E8E0D8" mask="url(#path-1-inside-1_113_3205)"/>
<path d="M24 20V22.6667C24 23.0203 23.8595 23.3594 23.6095 23.6095C23.3594 23.8595 23.0203 24 22.6667 24H13.3333C12.9797 24 12.6406 23.8595 12.3905 23.6095C12.1405 23.3594 12 23.0203 12 22.6667V20" stroke="#6B6B6B" stroke-width="1.33333" stroke-linecap="round" stroke-linejoin="round"/>
<path d="M14.6666 16.6667L18 20.0001L21.3333 16.6667" stroke="#6B6B6B" stroke-width="1.33333" stroke-linecap="round" stroke-linejoin="round"/>
<path d="M18 20V12" stroke="#6B6B6B" stroke-width="1.33333" stroke-linecap="round" stroke-linejoin="round"/>
</svg>
