<svg width="38" height="38" viewBox="0 0 38 38" fill="none" xmlns="http://www.w3.org/2000/svg">
<path d="M17.4167 31.6665C14.6365 31.6749 11.9546 30.6381 9.90305 28.7617C7.85147 26.8854 6.58003 24.3065 6.3409 21.5365C6.10177 18.7666 6.91241 16.0079 8.61206 13.8077C10.3117 11.6074 12.7762 10.1264 15.5167 9.65817C24.5417 7.9165 26.9167 7.09317 30.0834 3.1665C31.6667 6.33317 33.2501 9.78484 33.2501 15.8332C33.2501 24.5415 25.6817 31.6665 17.4167 31.6665Z" stroke="#6B9E7A" stroke-width="3.16667" stroke-linecap="round" stroke-linejoin="round"/>
<path d="M3.16675 33.25C3.16675 28.5 6.09591 24.7633 11.2101 23.75C15.0417 22.99 19.0001 20.5833 20.5834 19" stroke="#6B9E7A" stroke-width="3.16667" stroke-linecap="round" stroke-linejoin="round"/>
</svg>
