<svg width="120" height="120" viewBox="0 0 120 120" fill="none" xmlns="http://www.w3.org/2000/svg">
<g filter="url(#filter0_d_837_1128)">
<rect x="20" y="20" width="80" height="80" rx="40" fill="#EDF5EF"/>
<path d="M73.4999 63.0001H60.1874L64.1699 59.0157C65.5866 59.6482 67.1186 59.9814 68.6699 59.9945C70.4554 59.9985 72.2074 59.5093 73.7324 58.5807C78.2324 55.8488 80.6699 49.6201 80.2087 41.9176C80.1761 41.3678 79.9431 40.849 79.5536 40.4595C79.1642 40.0701 78.6454 39.837 78.0956 39.8045C70.3912 39.3526 64.1624 41.7713 61.4324 46.2807C59.6999 49.1382 59.5574 52.5432 60.9956 55.8432L58.4999 58.3126L56.4112 56.2257C57.3374 53.8088 57.1612 51.3282 55.8937 49.2207C53.8124 45.797 49.1474 43.9501 43.4043 44.2895C42.8542 44.3216 42.3349 44.5545 41.9451 44.944C41.5552 45.3334 41.3219 45.8525 41.2893 46.4026C40.9518 52.1476 42.7893 56.8163 46.2243 58.892C47.41 59.6159 48.7725 59.9987 50.1618 59.9982C51.2085 59.9915 52.2451 59.7926 53.2199 59.4113L55.3124 61.5001L53.8124 63.0001H46.4999C45.9032 63.0001 45.3309 63.2371 44.9089 63.6591C44.487 64.0811 44.2499 64.6534 44.2499 65.2501C44.2499 65.8468 44.487 66.4191 44.9089 66.8411C45.3309 67.263 45.9032 67.5001 46.4999 67.5001H47.8631L50.0437 77.3138C50.2253 78.1484 50.6879 78.8953 51.354 79.4297C52.0202 79.9641 52.8496 80.2537 53.7037 80.2501H66.2981C67.1522 80.2541 67.9818 79.9646 68.648 79.4301C69.3143 78.8956 69.7768 78.1485 69.9581 77.3138L72.1387 67.5001H73.4999C74.0967 67.5001 74.669 67.263 75.0909 66.8411C75.5129 66.4191 75.7499 65.8468 75.7499 65.2501C75.7499 64.6534 75.5129 64.0811 75.0909 63.6591C74.669 63.2371 74.0967 63.0001 73.4999 63.0001ZM65.2687 48.6113C66.8999 45.917 70.7418 44.3438 75.7499 44.2501C75.6599 49.2545 74.0868 53.0963 71.3906 54.7295C69.6224 55.8001 67.5562 55.757 65.3906 54.6132C64.2393 52.4457 64.1981 50.3795 65.2687 48.6113ZM52.0331 55.0313C51.0524 55.5057 49.7831 55.7813 48.5568 55.0445C46.9687 54.0826 45.9674 51.767 45.7818 48.782C48.7687 48.9695 51.0824 49.967 52.0443 51.5551C52.7831 52.7776 52.4999 54.0507 52.0331 55.0313ZM65.6962 75.7501H54.3037L52.4718 67.5001H67.5299L65.6962 75.7501Z" fill="#6B9E7A"/>
</g>
<defs>
<filter id="filter0_d_837_1128" x="0" y="0" width="120" height="120" filterUnits="userSpaceOnUse" color-interpolation-filters="sRGB">
<feFlood flood-opacity="0" result="BackgroundImageFix"/>
<feColorMatrix in="SourceAlpha" type="matrix" values="0 0 0 0 0 0 0 0 0 0 0 0 0 0 0 0 0 0 127 0" result="hardAlpha"/>
<feOffset/>
<feGaussianBlur stdDeviation="10"/>
<feComposite in2="hardAlpha" operator="out"/>
<feColorMatrix type="matrix" values="0 0 0 0 0 0 0 0 0 0 0 0 0 0 0 0 0 0 0.1 0"/>
<feBlend mode="normal" in2="BackgroundImageFix" result="effect1_dropShadow_837_1128"/>
<feBlend mode="normal" in="SourceGraphic" in2="effect1_dropShadow_837_1128" result="shape"/>
</filter>
</defs>
</svg>
