<svg width="36" height="36" viewBox="0 0 36 36" fill="none" xmlns="http://www.w3.org/2000/svg">
<path d="M0 18C0 8.05888 8.05888 0 18 0C27.9411 0 36 8.05888 36 18C36 27.9411 27.9411 36 18 36C8.05888 36 0 27.9411 0 18Z" fill="#EDD5C2"/>
<path d="M26.9733 12.6317C26.9611 12.4255 26.8737 12.231 26.7277 12.0849C26.5816 11.9389 26.3871 11.8515 26.1809 11.8393C22.4353 11.6192 19.4168 12.7786 18.1062 14.9429C17.2526 16.3491 17.2231 18.0486 18.0035 19.6749C17.6237 20.1595 17.3315 20.7068 17.1401 21.2921L16.2499 20.4019C16.7555 19.2228 16.7021 18.0036 16.0812 16.9784C15.0982 15.3535 12.8595 14.4844 10.0934 14.644C9.88709 14.6563 9.69246 14.7438 9.54639 14.89C9.40033 15.0361 9.313 15.2309 9.30096 15.4372C9.14065 18.2033 10.0097 20.442 11.6332 21.425C12.1839 21.7606 12.8165 21.9375 13.4614 21.9361C14.0111 21.9316 14.5542 21.8151 15.0574 21.5937L16.875 23.4141V25.0313C16.875 25.2551 16.9639 25.4697 17.1222 25.6279C17.2804 25.7862 17.495 25.8751 17.7188 25.8751C17.9426 25.8751 18.1572 25.7862 18.3154 25.6279C18.4736 25.4697 18.5625 25.2551 18.5625 25.0313V22.9578C18.5608 22.2036 18.794 21.4675 19.2298 20.8519C19.9357 21.1863 20.7058 21.3636 21.4868 21.3715C22.3272 21.3734 23.1518 21.1433 23.8697 20.7064C26.0332 19.3958 27.1941 16.3772 26.9733 12.6317ZM12.5072 19.9815C11.5798 19.419 11.018 18.0507 10.9723 16.3161C12.7069 16.3618 14.0759 16.9236 14.6377 17.851C14.8574 18.2083 14.9475 18.6304 14.8929 19.0463L14.0963 18.2468C13.9378 18.0883 13.7228 17.9993 13.4986 17.9993C13.2745 17.9993 13.0595 18.0883 12.901 18.2468C12.7425 18.4054 12.6534 18.6203 12.6534 18.8445C12.6534 19.0687 12.7425 19.2837 12.901 19.4422L13.6983 20.2395C13.2835 20.2907 12.8636 20.1997 12.5072 19.9815ZM22.9957 19.2657C22.2462 19.7192 21.3785 19.805 20.4778 19.5301L23.097 16.9116C23.2555 16.7531 23.3445 16.5381 23.3445 16.314C23.3445 16.0898 23.2555 15.8748 23.097 15.7163C22.9385 15.5578 22.7235 15.4687 22.4993 15.4687C22.2752 15.4687 22.0602 15.5578 21.9017 15.7163L19.2825 18.3347C19.0104 17.4376 19.0962 16.5664 19.5469 15.8204C20.4399 14.3438 22.5457 13.5001 25.2647 13.5001H25.3125C25.3224 16.2422 24.4786 18.3643 22.9957 19.2657Z" fill="#D47E6E"/>
</svg>
