<svg width="58" height="58" viewBox="0 0 58 58" fill="none" xmlns="http://www.w3.org/2000/svg">
<path d="M29 1C44.464 1 57 13.536 57 29C57 44.464 44.464 57 29 57C13.536 57 1 44.464 1 29C1 13.536 13.536 1 29 1Z" fill="#8AAF95"/>
<path d="M29 1C44.464 1 57 13.536 57 29C57 44.464 44.464 57 29 57C13.536 57 1 44.464 1 29C1 13.536 13.536 1 29 1Z" stroke="#B9CFBF" stroke-width="2"/>
<path d="M38.3242 33.5073C39.9747 32.792 40.8125 30.9808 40.8125 28.125C40.8125 25.2692 39.9747 23.4569 38.3242 22.7416C37.1583 22.2373 35.7441 22.3478 34.04 23.085C34.7761 21.3809 34.8877 19.9667 34.3834 18.8008C33.667 17.1503 31.8569 16.3125 29 16.3125C26.1431 16.3125 24.333 17.1503 23.6166 18.8008C23.1123 19.9667 23.2239 21.3809 23.96 23.085C22.2559 22.3478 20.8417 22.2373 19.6758 22.7416C18.0253 23.4569 17.1875 25.2681 17.1875 28.125C17.1875 30.9819 18.0253 32.792 19.6758 33.5073C20.1682 33.7177 20.6989 33.8235 21.2344 33.818C22.0474 33.818 22.9567 33.5992 23.9622 33.1617C23.2261 34.8669 23.1145 36.2811 23.6188 37.4459C24.333 39.0997 26.1431 39.9375 29 39.9375C31.8569 39.9375 33.667 39.0997 34.3834 37.4481C34.4498 37.2942 34.5057 37.136 34.5508 36.9745C35.3787 38.4161 36.082 39.9725 36.4769 41.5683C36.5478 41.8522 36.7117 42.1043 36.9424 42.2844C37.173 42.4646 37.4573 42.5625 37.75 42.5625C37.8577 42.5622 37.9649 42.549 38.0694 42.5231C38.407 42.4387 38.6973 42.2236 38.8763 41.9251C39.0554 41.6267 39.1086 41.2694 39.0242 40.9317C38.368 38.2947 37.0303 35.8009 35.5778 33.6769C35.9674 33.767 36.3657 33.8143 36.7656 33.818C37.3011 33.8235 37.8318 33.7177 38.3242 33.5073ZM26.0261 19.8442C26.2755 19.2656 27.3594 18.9375 29 18.9375C30.6406 18.9375 31.7245 19.2656 31.9739 19.8442C32.0964 20.1253 32.3502 21.2661 30.4941 24.0891C29.9877 24.8547 29.4452 25.5667 29 26.1147C28.5548 25.5678 28.0156 24.8591 27.5059 24.0891C25.6498 21.2628 25.9036 20.1253 26.0261 19.8442ZM20.7192 31.0989C20.1406 30.8495 19.8125 29.7656 19.8125 28.125C19.8125 26.4844 20.1406 25.4005 20.7192 25.1511C20.8798 25.0873 21.0518 25.0571 21.2245 25.0625C21.8327 25.0625 22.9844 25.3305 24.9641 26.6309C25.664 27.0946 26.34 27.5933 26.9897 28.125C26.4428 28.5702 25.7341 29.1094 24.9641 29.6191C22.1378 31.4752 21.0003 31.2214 20.7192 31.0989ZM31.9739 36.4058C31.7245 36.9844 30.6406 37.3125 29 37.3125C27.3594 37.3125 26.2755 36.9844 26.0261 36.4058C25.9036 36.1236 25.6498 34.9839 27.5059 32.1609C28.0123 31.3953 28.5548 30.6833 29 30.1353C29.4452 30.6822 29.9844 31.3909 30.4941 32.1609C32.3502 34.9872 32.0964 36.1236 31.9739 36.4058ZM33.0359 29.6191C32.2703 29.1127 31.5583 28.5702 31.0103 28.125C31.66 27.5933 32.336 27.0946 33.0359 26.6309C35.8622 24.7716 36.9997 25.0286 37.2808 25.1511C37.8594 25.4005 38.1875 26.4844 38.1875 28.125C38.1875 29.7656 37.8594 30.8495 37.2808 31.0989C36.9997 31.2214 35.8622 31.4752 33.0359 29.6191Z" fill="white"/>
</svg>
