<svg width="58" height="58" viewBox="0 0 58 58" fill="none" xmlns="http://www.w3.org/2000/svg">
<path d="M29 1C44.464 1 57 13.536 57 29C57 44.464 44.464 57 29 57C13.536 57 1 44.464 1 29C1 13.536 13.536 1 29 1Z" fill="#8AAF95"/>
<path d="M29 1C44.464 1 57 13.536 57 29C57 44.464 44.464 57 29 57C13.536 57 1 44.464 1 29C1 13.536 13.536 1 29 1Z" stroke="#B9CFBF" stroke-width="2"/>
<path d="M27.8334 38.3333C25.7848 38.3395 23.8087 37.5756 22.297 36.193C20.7853 34.8104 19.8485 32.9102 19.6722 30.8691C19.496 28.8281 20.0934 26.7954 21.3457 25.1742C22.5981 23.553 24.414 22.4617 26.4334 22.1167C33.0834 20.8333 34.8334 20.2267 37.1667 17.3333C38.3334 19.6667 39.5001 22.21 39.5001 26.6667C39.5001 33.0833 33.9234 38.3333 27.8334 38.3333Z" stroke="white" stroke-width="3.16667" stroke-linecap="round" stroke-linejoin="round"/>
<path d="M17.3334 39.5C17.3334 36 19.4917 33.2467 23.26 32.5C26.0834 31.94 29 30.1667 30.1667 29" stroke="white" stroke-width="3.16667" stroke-linecap="round" stroke-linejoin="round"/>
</svg>
