<svg width="120" height="120" viewBox="0 0 120 120" fill="none" xmlns="http://www.w3.org/2000/svg">
<g filter="url(#filter0_d_113_3076)">
<rect x="20" y="20" width="80" height="80" rx="40" fill="#EDF5EF"/>
<path d="M73.5 62.9998H60.1875L64.17 59.0155C65.5866 59.648 67.1186 59.9812 68.67 59.9942C70.4555 59.9983 72.2074 59.5091 73.7325 58.5805C78.2325 55.8486 80.67 49.6198 80.2087 41.9173C80.1762 41.3675 79.9431 40.8488 79.5537 40.4593C79.1642 40.0698 78.6454 39.8368 78.0956 39.8042C70.3912 39.3523 64.1625 41.7711 61.4325 46.2805C59.7 49.138 59.5575 52.543 60.9956 55.843L58.5 58.3123L56.4112 56.2255C57.3375 53.8086 57.1612 51.328 55.8937 49.2205C53.8125 45.7967 49.1475 43.9498 43.4044 44.2892C42.8542 44.3213 42.335 44.5542 41.9451 44.9437C41.5553 45.3332 41.322 45.8522 41.2894 46.4023C40.9519 52.1473 42.7894 56.8161 46.2244 58.8917C47.4101 59.6157 48.7726 59.9985 50.1619 59.998C51.2086 59.9913 52.2452 59.7923 53.22 59.4111L55.3125 61.4998L53.8125 62.9998H46.5C45.9033 62.9998 45.331 63.2369 44.909 63.6589C44.487 64.0808 44.25 64.6531 44.25 65.2498C44.25 65.8466 44.487 66.4189 44.909 66.8408C45.331 67.2628 45.9033 67.4998 46.5 67.4998H47.8631L50.0437 77.3136C50.2254 78.1481 50.6879 78.895 51.3541 79.4295C52.0203 79.9639 52.8497 80.2535 53.7037 80.2498H66.2981C67.1523 80.2538 67.9819 79.9644 68.6481 79.4299C69.3144 78.8954 69.7768 78.1483 69.9581 77.3136L72.1387 67.4998H73.5C74.0967 67.4998 74.669 67.2628 75.091 66.8408C75.5129 66.4189 75.75 65.8466 75.75 65.2498C75.75 64.6531 75.5129 64.0808 75.091 63.6589C74.669 63.2369 74.0967 62.9998 73.5 62.9998ZM65.2687 48.6111C66.9 45.9167 70.7419 44.3436 75.75 44.2498C75.66 49.2542 74.0869 53.0961 71.3906 54.7292C69.6225 55.7998 67.5562 55.7567 65.3906 54.613C64.2394 52.4455 64.1981 50.3792 65.2687 48.6111ZM52.0331 55.0311C51.0525 55.5055 49.7831 55.7811 48.5569 55.0442C46.9687 54.0823 45.9675 51.7667 45.7819 48.7817C48.7687 48.9692 51.0825 49.9667 52.0444 51.5548C52.7831 52.7773 52.5 54.0505 52.0331 55.0311ZM65.6962 75.7498H54.3037L52.4719 67.4998H67.53L65.6962 75.7498Z" fill="#6B9E7A"/>
</g>
<defs>
<filter id="filter0_d_113_3076" x="0" y="0" width="120" height="120" filterUnits="userSpaceOnUse" color-interpolation-filters="sRGB">
<feFlood flood-opacity="0" result="BackgroundImageFix"/>
<feColorMatrix in="SourceAlpha" type="matrix" values="0 0 0 0 0 0 0 0 0 0 0 0 0 0 0 0 0 0 127 0" result="hardAlpha"/>
<feOffset/>
<feGaussianBlur stdDeviation="10"/>
<feComposite in2="hardAlpha" operator="out"/>
<feColorMatrix type="matrix" values="0 0 0 0 0 0 0 0 0 0 0 0 0 0 0 0 0 0 0.1 0"/>
<feBlend mode="normal" in2="BackgroundImageFix" result="effect1_dropShadow_113_3076"/>
<feBlend mode="normal" in="SourceGraphic" in2="effect1_dropShadow_113_3076" result="shape"/>
</filter>
</defs>
</svg>
