<svg width="28" height="28" viewBox="0 0 28 28" fill="none" xmlns="http://www.w3.org/2000/svg">
<rect width="28" height="28" rx="14" fill="#E8E0D8"/>
<path d="M20.8891 9.48521C20.5043 9.02213 19.9701 8.70823 19.3788 8.59778C19.3083 8.23349 19.1604 7.88863 18.9453 7.58653C18.7301 7.28442 18.4527 7.03212 18.1317 6.8467C17.8108 6.66127 17.4538 6.54705 17.085 6.51175C16.7162 6.47645 16.3441 6.52091 15.9939 6.64211C15.6437 6.76331 15.3235 6.95843 15.0552 7.21426C14.7868 7.47009 14.5764 7.78067 14.4383 8.12499C14.3001 8.4693 14.2374 8.83931 14.2544 9.20999C14.2714 9.58067 14.3677 9.94337 14.5368 10.2735L10.2679 14.552C9.93825 14.3827 9.5761 14.2862 9.20597 14.2692C8.83584 14.2522 8.46638 14.3149 8.12257 14.4533C7.77877 14.5916 7.46865 14.8023 7.2132 15.0711C6.95775 15.3399 6.76292 15.6605 6.6419 16.0112C6.52088 16.3619 6.47649 16.7346 6.51173 17.104C6.54698 17.4734 6.66103 17.8309 6.84618 18.1523C7.03133 18.4737 7.28326 18.7515 7.58491 18.967C7.88657 19.1825 8.23092 19.3305 8.59466 19.4012C8.66506 19.7656 8.8128 20.1105 9.02789 20.4128C9.24297 20.715 9.52037 20.9674 9.84132 21.153C10.1623 21.3385 10.5193 21.4528 10.8882 21.4882C11.2571 21.5236 11.6292 21.4792 11.9795 21.358C12.3298 21.2368 12.65 21.0417 12.9184 20.7858C13.1868 20.53 13.3973 20.2193 13.5354 19.875C13.6736 19.5306 13.7363 19.1605 13.7192 18.7898C13.7022 18.419 13.6058 18.0563 13.4366 17.7261L17.7088 13.4469C18.2396 13.7265 18.851 13.8126 19.4383 13.6906C20.0256 13.5686 20.5523 13.246 20.9284 12.7781C21.3044 12.3101 21.5064 11.7258 21.4998 11.1252C21.4933 10.5245 21.2785 9.94481 20.8923 9.48521H20.8891ZM19.6834 11.8301C19.5212 12.0154 19.2984 12.1367 19.0549 12.1723C18.8114 12.2079 18.5633 12.1555 18.3549 12.0244C18.1066 11.8671 17.8123 11.7991 17.5203 11.8316C17.2282 11.864 16.956 11.9951 16.7482 12.2032L12.1948 16.7635C11.9871 16.9716 11.8563 17.2443 11.824 17.5368C11.7916 17.8292 11.8597 18.124 12.0169 18.3725C12.1048 18.5145 12.1572 18.6756 12.1695 18.8422C12.1819 19.0088 12.1538 19.1759 12.0878 19.3293C12.0217 19.4827 11.9196 19.6178 11.7902 19.7232C11.6607 19.8285 11.5078 19.901 11.3443 19.9344C11.1809 19.9678 11.0118 19.9611 10.8515 19.915C10.6912 19.8688 10.5444 19.7845 10.4237 19.6693C10.3029 19.5541 10.2117 19.4113 10.1579 19.2532C10.1041 19.0951 10.0893 18.9263 10.1146 18.7612C10.1315 18.6505 10.1243 18.5375 10.0935 18.4298C10.0627 18.3222 10.009 18.2225 9.93619 18.1375C9.86334 18.0526 9.77303 17.9844 9.67143 17.9376C9.56983 17.8909 9.45935 17.8667 9.34754 17.8666C9.30747 17.8665 9.26746 17.8695 9.22788 17.8757C9.06297 17.9013 8.89433 17.8865 8.73634 17.8327C8.57835 17.7789 8.4357 17.6876 8.32055 17.5666C8.2054 17.4457 8.12117 17.2986 8.07503 17.138C8.0289 16.9774 8.02223 16.808 8.0556 16.6442C8.08897 16.4805 8.16138 16.3272 8.26667 16.1976C8.37196 16.0679 8.50699 15.9657 8.66026 15.8996C8.81353 15.8335 8.98049 15.8055 9.1469 15.8179C9.31331 15.8304 9.47424 15.883 9.61596 15.9713C9.86417 16.1285 10.1584 16.1964 10.4503 16.1639C10.7421 16.1314 11.0143 16.0004 11.222 15.7925L15.7755 11.2322C15.9832 11.0242 16.1141 10.7515 16.1466 10.4591C16.179 10.1666 16.1111 9.87182 15.954 9.62319C15.8659 9.48125 15.8133 9.32008 15.8009 9.15343C15.7884 8.98677 15.8164 8.81956 15.8824 8.66606C15.9484 8.51257 16.0505 8.37733 16.1799 8.27189C16.3094 8.16644 16.4624 8.09392 16.6259 8.0605C16.7894 8.02709 16.9586 8.03376 17.119 8.07996C17.2793 8.12617 17.4262 8.21052 17.547 8.32585C17.6677 8.44117 17.7589 8.58403 17.8126 8.74225C17.8664 8.90048 17.8811 9.06937 17.8556 9.23453C17.8367 9.35547 17.8466 9.47917 17.8845 9.59555C17.9224 9.71194 17.9872 9.81772 18.0736 9.90428C18.16 9.99083 18.2656 10.0557 18.3818 10.0937C18.4981 10.1316 18.6216 10.1415 18.7423 10.1226C18.9527 10.0889 19.1683 10.1209 19.3597 10.2145C19.5512 10.308 19.7091 10.4584 19.8121 10.6451C19.915 10.8319 19.9579 11.0459 19.9349 11.258C19.9118 11.4701 19.824 11.6699 19.6834 11.8301Z" fill="#A9A199"/>
</svg>
