<svg width="28" height="28" viewBox="0 0 28 28" fill="none" xmlns="http://www.w3.org/2000/svg">
<rect width="28" height="28" rx="14" fill="#E8E0D8"/>
<path d="M13.125 7.29167V6.125C13.125 5.89294 13.2172 5.67038 13.3813 5.50628C13.5454 5.34219 13.7679 5.25 14 5.25C14.2321 5.25 14.4546 5.34219 14.6187 5.50628C14.7828 5.67038 14.875 5.89294 14.875 6.125V7.29167C14.875 7.52373 14.7828 7.74629 14.6187 7.91039C14.4546 8.07448 14.2321 8.16667 14 8.16667C13.7679 8.16667 13.5454 8.07448 13.3813 7.91039C13.2172 7.74629 13.125 7.52373 13.125 7.29167ZM18.9583 14C18.9583 14.9807 18.6675 15.9393 18.1227 16.7547C17.5779 17.5701 16.8035 18.2056 15.8975 18.5809C14.9915 18.9562 13.9945 19.0544 13.0327 18.8631C12.0709 18.6717 11.1874 18.1995 10.4939 17.5061C9.80049 16.8126 9.32826 15.9291 9.13694 14.9673C8.94562 14.0055 9.04381 13.0085 9.4191 12.1025C9.79438 11.1965 10.4299 10.4221 11.2453 9.8773C12.0607 9.33247 13.0193 9.04167 14 9.04167C15.3146 9.04302 16.575 9.56585 17.5046 10.4954C18.4342 11.425 18.957 12.6854 18.9583 14ZM17.2083 14C17.2083 13.3655 17.0202 12.7452 16.6676 12.2175C16.3151 11.6899 15.814 11.2787 15.2278 11.0359C14.6415 10.7931 13.9964 10.7295 13.3741 10.8533C12.7517 10.9771 12.1801 11.2827 11.7314 11.7314C11.2827 12.1801 10.9771 12.7517 10.8533 13.3741C10.7295 13.9964 10.7931 14.6415 11.0359 15.2278C11.2787 15.814 11.6899 16.3151 12.2175 16.6676C12.7452 17.0202 13.3655 17.2083 14 17.2083C14.8506 17.2074 15.6661 16.869 16.2676 16.2676C16.869 15.6661 17.2074 14.8506 17.2083 14ZM8.4226 9.66073C8.504 9.74212 8.60062 9.80668 8.70697 9.85073C8.81331 9.89478 8.92729 9.91746 9.0424 9.91746C9.1575 9.91746 9.27148 9.89478 9.37782 9.85073C9.48417 9.80668 9.5808 9.74212 9.66219 9.66073C9.74358 9.57934 9.80814 9.48271 9.85219 9.37637C9.89624 9.27002 9.91891 9.15604 9.91891 9.04094C9.91891 8.92583 9.89624 8.81185 9.85219 8.70551C9.80814 8.59916 9.74358 8.50254 9.66219 8.42115L8.78719 7.54615C8.62281 7.38177 8.39986 7.28942 8.1674 7.28942C7.93493 7.28942 7.71198 7.38177 7.5476 7.54615C7.38322 7.71052 7.29088 7.93347 7.29088 8.16594C7.29088 8.3984 7.38322 8.62135 7.5476 8.78573L8.4226 9.66073ZM8.4226 18.3378L7.5476 19.2128C7.46621 19.2942 7.40165 19.3908 7.3576 19.4972C7.31355 19.6035 7.29088 19.7175 7.29088 19.8326C7.29088 19.9477 7.31355 20.0617 7.3576 20.168C7.40165 20.2744 7.46621 20.371 7.5476 20.4524C7.71198 20.6168 7.93493 20.7091 8.1674 20.7091C8.2825 20.7091 8.39648 20.6864 8.50282 20.6424C8.60917 20.5984 8.7058 20.5338 8.78719 20.4524L9.66219 19.5774C9.82657 19.413 9.91891 19.1901 9.91891 18.9576C9.91891 18.7251 9.82657 18.5022 9.66219 18.3378C9.49781 18.1734 9.27486 18.0811 9.0424 18.0811C8.80993 18.0811 8.58698 18.1734 8.4226 18.3378ZM18.9583 9.91667C19.0733 9.91676 19.1871 9.8942 19.2933 9.85029C19.3995 9.80637 19.4961 9.74196 19.5774 9.66073L20.4524 8.78573C20.5338 8.70434 20.5984 8.60771 20.6424 8.50137C20.6864 8.39502 20.7091 8.28104 20.7091 8.16594C20.7091 8.05083 20.6864 7.93685 20.6424 7.83051C20.5984 7.72416 20.5338 7.62754 20.4524 7.54615C20.371 7.46475 20.2744 7.40019 20.168 7.35614C20.0617 7.31209 19.9477 7.28942 19.8326 7.28942C19.7175 7.28942 19.6035 7.31209 19.4972 7.35614C19.3908 7.40019 19.2942 7.46475 19.2128 7.54615L18.3378 8.42115C18.2147 8.54353 18.1308 8.69976 18.0967 8.86997C18.0627 9.04018 18.08 9.21668 18.1465 9.37701C18.213 9.53734 18.3258 9.67426 18.4703 9.77036C18.6149 9.86646 18.7847 9.91738 18.9583 9.91667ZM19.5774 18.3393C19.413 18.1749 19.1901 18.0825 18.9576 18.0825C18.7251 18.0825 18.5022 18.1749 18.3378 18.3393C18.1734 18.5036 18.0811 18.7266 18.0811 18.9591C18.0811 19.1915 18.1734 19.4145 18.3378 19.5789L19.2128 20.4539C19.3772 20.6182 19.6001 20.7106 19.8326 20.7106C20.0651 20.7106 20.288 20.6182 20.4524 20.4539C20.6168 20.2895 20.7091 20.0665 20.7091 19.8341C20.7091 19.6016 20.6168 19.3786 20.4524 19.2143L19.5774 18.3393ZM8.16667 14C8.16667 13.7679 8.07448 13.5454 7.91039 13.3813C7.74629 13.2172 7.52373 13.125 7.29167 13.125H6.125C5.89294 13.125 5.67038 13.2172 5.50628 13.3813C5.34219 13.5454 5.25 13.7679 5.25 14C5.25 14.2321 5.34219 14.4546 5.50628 14.6187C5.67038 14.7828 5.89294 14.875 6.125 14.875H7.29167C7.52373 14.875 7.74629 14.7828 7.91039 14.6187C8.07448 14.4546 8.16667 14.2321 8.16667 14ZM14 19.8333C13.7679 19.8333 13.5454 19.9255 13.3813 20.0896C13.2172 20.2537 13.125 20.4763 13.125 20.7083V21.875C13.125 22.1071 13.2172 22.3296 13.3813 22.4937C13.5454 22.6578 13.7679 22.75 14 22.75C14.2321 22.75 14.4546 22.6578 14.6187 22.4937C14.7828 22.3296 14.875 22.1071 14.875 21.875V20.7083C14.875 20.4763 14.7828 20.2537 14.6187 20.0896C14.4546 19.9255 14.2321 19.8333 14 19.8333ZM21.875 13.125H20.7083C20.4763 13.125 20.2537 13.2172 20.0896 13.3813C19.9255 13.5454 19.8333 13.7679 19.8333 14C19.8333 14.2321 19.9255 14.4546 20.0896 14.6187C20.2537 14.7828 20.4763 14.875 20.7083 14.875H21.875C22.1071 14.875 22.3296 14.7828 22.4937 14.6187C22.6578 14.4546 22.75 14.2321 22.75 14C22.75 13.7679 22.6578 13.5454 22.4937 13.3813C22.3296 13.2172 22.1071 13.125 21.875 13.125Z" fill="#A9A199"/>
</svg>
