<svg width="28" height="28" viewBox="0 0 28 28" fill="none" xmlns="http://www.w3.org/2000/svg">
<rect width="28" height="28" rx="14" fill="#E8E0D8"/>
<path d="M17.25 15.4639V9.35485C17.25 8.46508 16.9076 7.61177 16.2981 6.98261C15.6886 6.35346 14.862 6 14 6C13.138 6 12.3114 6.35346 11.7019 6.98261C11.0924 7.61177 10.75 8.46508 10.75 9.35485V15.4639C10.3211 16.0809 10.0654 16.8081 10.011 17.5654C9.95652 18.3227 10.1055 19.0808 10.4414 19.7564C10.7773 20.432 11.2873 20.9989 11.9151 21.3947C12.5429 21.7906 13.2643 22 14 22C14.7357 22 15.4571 21.7906 16.0849 21.3947C16.7127 20.9989 17.2227 20.432 17.5586 19.7564C17.8945 19.0808 18.0435 18.3227 17.989 17.5654C17.9346 16.8081 17.6789 16.0809 17.25 15.4639ZM14 20.4516C13.5263 20.4517 13.0624 20.3128 12.6622 20.0511C12.2621 19.7895 11.9421 19.4159 11.7397 18.9739C11.5373 18.5318 11.4607 18.0395 11.5188 17.5542C11.577 17.069 11.7675 16.6107 12.0681 16.2329C12.1854 16.0925 12.2499 15.9132 12.25 15.7278V9.35485C12.25 8.87574 12.4344 8.41626 12.7626 8.07749C13.0908 7.73871 13.5359 7.54839 14 7.54839C14.4641 7.54839 14.9092 7.73871 15.2374 8.07749C15.5656 8.41626 15.75 8.87574 15.75 9.35485V15.7271C15.7498 15.9081 15.8111 16.0834 15.9231 16.2226C16.2264 16.5997 16.4193 17.058 16.4795 17.5441C16.5396 18.0302 16.4644 18.524 16.2627 18.9676C16.0609 19.4112 15.741 19.7863 15.3403 20.0491C14.9396 20.312 14.4747 20.4516 14 20.4516ZM15.5 17.871C15.5001 18.1428 15.4308 18.4098 15.2992 18.6453C15.1675 18.8807 14.9782 19.0762 14.7502 19.2121C14.5222 19.3481 14.2635 19.4196 14.0002 19.4197C13.7369 19.4197 13.4782 19.3482 13.2501 19.2123C13.0221 19.0764 12.8327 18.881 12.701 18.6456C12.5693 18.4102 12.5 18.1432 12.5 17.8714C12.5 17.5996 12.5693 17.3325 12.7009 17.0971C12.8326 16.8617 13.022 16.6662 13.25 16.5303V11.6774C13.25 11.4721 13.329 11.2752 13.4697 11.13C13.6103 10.9848 13.8011 10.9032 14 10.9032C14.1989 10.9032 14.3897 10.9848 14.5303 11.13C14.671 11.2752 14.75 11.4721 14.75 11.6774V16.5303C14.978 16.6662 15.1673 16.8616 15.299 17.097C15.4306 17.3323 15.4999 17.5992 15.5 17.871Z" fill="#A9A199"/>
</svg>
