<svg width="28" height="28" viewBox="0 0 28 28" fill="none" xmlns="http://www.w3.org/2000/svg">
<rect width="28" height="28" rx="14" fill="#C8E0CE"/>
<path d="M14 6.5C12.5166 6.5 11.0666 6.93987 9.83323 7.76398C8.59986 8.58809 7.63856 9.75943 7.07091 11.1299C6.50325 12.5003 6.35472 14.0083 6.64411 15.4632C6.9335 16.918 7.64781 18.2544 8.6967 19.3033C9.7456 20.3522 11.082 21.0665 12.5368 21.3559C13.9917 21.6453 15.4997 21.4968 16.8701 20.9291C18.2406 20.3614 19.4119 19.4001 20.236 18.1668C21.0601 16.9334 21.5 15.4834 21.5 14C21.4978 12.0116 20.7069 10.1052 19.3009 8.69914C17.8948 7.29309 15.9884 6.50221 14 6.5ZM14 19.8333C12.8463 19.8333 11.7185 19.4912 10.7592 18.8502C9.79989 18.2093 9.05222 17.2982 8.61071 16.2323C8.16919 15.1664 8.05368 13.9935 8.27876 12.862C8.50384 11.7304 9.05941 10.691 9.87521 9.87521C10.691 9.0594 11.7304 8.50383 12.862 8.27875C13.9935 8.05367 15.1664 8.16919 16.2323 8.6107C17.2982 9.05221 18.2093 9.79989 18.8502 10.7592C19.4912 11.7185 19.8333 12.8463 19.8333 14C19.8317 15.5466 19.2166 17.0294 18.123 18.123C17.0294 19.2166 15.5466 19.8317 14 19.8333ZM10.3889 12.6111C10.3889 12.3914 10.4541 12.1765 10.5761 11.9938C10.6982 11.8111 10.8718 11.6687 11.0748 11.5846C11.2778 11.5005 11.5012 11.4785 11.7168 11.5213C11.9323 11.5642 12.1303 11.67 12.2857 11.8254C12.4411 11.9808 12.5469 12.1788 12.5898 12.3943C12.6326 12.6099 12.6106 12.8333 12.5265 13.0363C12.4424 13.2393 12.3 13.4129 12.1173 13.535C11.9346 13.6571 11.7198 13.7222 11.5 13.7222C11.2053 13.7222 10.9227 13.6052 10.7143 13.3968C10.506 13.1884 10.3889 12.9058 10.3889 12.6111ZM15.3889 12.6111C15.3889 12.3914 15.4541 12.1765 15.5761 11.9938C15.6982 11.8111 15.8718 11.6687 16.0748 11.5846C16.2778 11.5005 16.5012 11.4785 16.7168 11.5213C16.9323 11.5642 17.1303 11.67 17.2857 11.8254C17.4411 11.9808 17.5469 12.1788 17.5898 12.3943C17.6326 12.6099 17.6106 12.8333 17.5265 13.0363C17.4424 13.2393 17.3 13.4129 17.1173 13.535C16.9346 13.6571 16.7198 13.7222 16.5 13.7222C16.2053 13.7222 15.9227 13.6052 15.7143 13.3968C15.506 13.1884 15.3889 12.9058 15.3889 12.6111ZM17.5361 17.1208C17.4048 17.2985 17.2082 17.4168 16.9897 17.4496C16.7712 17.4824 16.5486 17.4271 16.3708 17.2958C16.1642 17.1324 15.983 16.9391 15.8333 16.7222C15.7816 16.6498 15.726 16.5802 15.6667 16.5139C15.6074 16.5802 15.5517 16.6498 15.5 16.7222C15.25 17.0556 14.8333 17.6111 14 17.6111C13.1667 17.6111 12.75 17.0556 12.5 16.7222C12.4483 16.6498 12.3927 16.5802 12.3333 16.5139C12.274 16.5802 12.2184 16.6498 12.1667 16.7222C12.017 16.9391 11.8358 17.1324 11.6292 17.2958C11.5412 17.3609 11.4412 17.408 11.335 17.4344C11.2288 17.4609 11.1184 17.4661 11.0102 17.4499C10.9019 17.4337 10.798 17.3963 10.7042 17.3399C10.6104 17.2835 10.5286 17.2092 10.4635 17.1212C10.3321 16.9434 10.2767 16.7208 10.3095 16.5022C10.3422 16.2836 10.4605 16.087 10.6382 15.9556C10.7106 15.8842 10.7759 15.8061 10.8333 15.7222C11.0833 15.3889 11.5 14.8333 12.3333 14.8333C13.1667 14.8333 13.5833 15.3889 13.8333 15.7222C13.885 15.7947 13.9407 15.8642 14 15.9306C14.0593 15.8642 14.115 15.7947 14.1667 15.7222C14.4167 15.3889 14.8333 14.8333 15.6667 14.8333C16.5 14.8333 16.9167 15.3889 17.1667 15.7222C17.2241 15.8061 17.2894 15.8842 17.3618 15.9556C17.5394 16.087 17.6575 16.2836 17.6902 16.5021C17.7229 16.7206 17.6675 16.9432 17.5361 17.1208Z" fill="#4A7A58"/>
</svg>
