<svg width="22" height="22" viewBox="0 0 22 22" fill="none" xmlns="http://www.w3.org/2000/svg">
<path d="M10.0833 18.3335C8.47372 18.3384 6.92107 17.7381 5.73331 16.6518C4.54555 15.5655 3.80945 14.0724 3.67101 12.4688C3.53256 10.8651 4.00188 9.26799 4.98589 7.99418C5.96989 6.72036 7.3967 5.86289 8.98333 5.59183C14.2083 4.5835 15.5833 4.10683 17.4167 1.8335C18.3333 3.66683 19.25 5.66516 19.25 9.16683C19.25 14.2085 14.8683 18.3335 10.0833 18.3335Z" stroke="#6B9E7A" stroke-width="2.29167" stroke-linecap="round" stroke-linejoin="round"/>
<path d="M1.83333 19.25C1.83333 16.5 3.52916 14.3367 6.49 13.75C8.70833 13.31 11 11.9167 11.9167 11" stroke="#6B9E7A" stroke-width="2.29167" stroke-linecap="round" stroke-linejoin="round"/>
</svg>
